<?xml version="1.0" standalone="no"?><!DOCTYPE svg PUBLIC "-//W3C//DTD SVG 1.1//EN" "http://www.w3.org/Graphics/SVG/1.1/DTD/svg11.dtd"><svg t="1671774365135" class="icon" viewBox="0 0 1024 1024" version="1.1" xmlns="http://www.w3.org/2000/svg" p-id="11100" xmlns:xlink="http://www.w3.org/1999/xlink" width="48" height="48"><path d="M281.6 819.2c-42.3424 0-76.8-34.4576-76.8-76.8S239.2576 665.6 281.6 665.6s76.8 34.4576 76.8 76.8S323.9424 819.2 281.6 819.2z m0-102.4a25.6 25.6 0 1 0 0 51.2 25.6 25.6 0 0 0 0-51.2zM742.4 819.2c-42.3424 0-76.8-34.4576-76.8-76.8s34.4576-76.8 76.8-76.8 76.8 34.4576 76.8 76.8-34.4576 76.8-76.8 76.8z m0-102.4a25.6 25.6 0 1 0 0 51.2 25.6 25.6 0 0 0 0-51.2z" fill="" p-id="11101"></path><path d="M868.2496 609.6384c-6.656-40.5504-28.3136-164.5568-51.7632-211.5072-15.616-31.232-55.7056-55.1424-119.0912-70.9632C645.888 314.3168 580.0448 307.2 512 307.2s-133.888 7.0656-185.3952 19.968c-63.3856 15.872-103.4752 39.7312-119.0912 70.9632-23.4496 46.8992-45.1072 170.9568-51.7632 211.5072C119.9616 634.1632 102.4 669.6448 102.4 716.8v128c0 33.3824 21.4016 61.8496 51.2 72.3968V972.8c0 28.2112 22.9888 51.2 51.2 51.2h51.2c28.2112 0 51.2-22.9888 51.2-51.2v-51.2h409.6v51.2c0 28.2112 22.9888 51.2 51.2 51.2h51.2c28.2112 0 51.2-22.9888 51.2-51.2v-55.6032c29.7984-10.5472 51.2-39.0144 51.2-72.3968V716.8c0-47.1552-17.5616-82.6368-53.3504-107.1616zM253.2864 421.0688C268.4928 390.7072 364.288 358.4 512 358.4s243.5072 32.256 258.7136 62.6688c14.6944 29.44 31.0272 107.3152 41.1136 162.9696a263.3216 263.3216 0 0 0-15.5136-4.096 469.2992 469.2992 0 0 0-44.1856-7.9872l-148.4288-106.3424a25.6 25.6 0 0 0-29.8496 41.6256l80.1792 57.4464c-43.52-1.4336-91.2384-1.4336-142.08-1.4336H494.08L346.9312 465.152a25.6 25.6 0 1 0-28.3648 42.5984l84.1728 56.1152c-68.6592 1.2288-128.3584 4.9664-175.104 16.0768a378.1632 378.1632 0 0 0-15.5136 4.096c10.1376-55.6544 26.4192-133.5296 41.1648-162.9696zM256 972.8H204.8v-51.2h51.2v51.2z m512 0v-51.2h51.2v51.2h-51.2z m102.4-128a25.6 25.6 0 0 1-25.6 25.6h-665.6a25.6 25.6 0 0 1-25.6-25.6V716.8c0-47.3088 24.8832-72.5504 85.9136-87.0912C303.7696 614.4 400.2816 614.4 512 614.4s208.1792 0 272.4864 15.3088C845.5168 644.2496 870.4 669.4912 870.4 716.8v128z" fill="" p-id="11102"></path></svg>