<?xml version="1.0" standalone="no"?><!DOCTYPE svg PUBLIC "-//W3C//DTD SVG 1.1//EN" "http://www.w3.org/Graphics/SVG/1.1/DTD/svg11.dtd"><svg t="1671763177377" class="icon" viewBox="0 0 1024 1024" version="1.1" xmlns="http://www.w3.org/2000/svg" p-id="14335" xmlns:xlink="http://www.w3.org/1999/xlink" width="48" height="48"><path d="M75.154286 475.428571a36.571429 36.571429 0 0 1-21.632-66.066285l437.211428-320.621715a36.571429 36.571429 0 0 1 42.788572-0.329142L768 254.811429V219.428571a36.571429 36.571429 0 0 1 36.571429-36.571428h36.571428a36.571429 36.571429 0 0 1 36.571429 36.571428v113.261715l107.593143 76.342857A36.571429 36.571429 0 0 1 964.132571 475.428571H877.714286v402.285715a73.142857 73.142857 0 0 1-73.142857 73.142857H219.428571a73.142857 73.142857 0 0 1-73.142857-73.142857V475.428571H75.154286zM621.714286 548.571429v292.571428h146.285714V548.571429h-146.285714z" p-id="14336"></path></svg>