<?xml version="1.0" encoding="utf-8"?>
<!-- Generator: Adobe Illustrator 26.2.1, SVG Export Plug-In . SVG Version: 6.00 Build 0)  -->
<svg version="1.1" id="图层_1" xmlns="http://www.w3.org/2000/svg" xmlns:xlink="http://www.w3.org/1999/xlink" x="0px" y="0px"
	 viewBox="0 0 429 234.4" style="enable-background:new 0 0 429 234.4;" xml:space="preserve">
<g id="图层_2_00000173859234313564305460000009165602828782664616_">
	<g id="图层_1-2">
		<g id="图层_2-2">
			<g id="图层_1-2-2">
				<path style="fill:#081B92;" d="M188.5,61.8C172.4,21.2,135.4,4.7,125.7,2c59.7,0,100.9,12.3,134.7,54.5
					C248,56.1,228,55.2,188.5,61.8z"/>
				<path style="fill:#3944DE;" d="M0.7,203.2c61.6-52.5,110.7-68.6,162.1-82.3c46.7-10.6,66.3-12.2,94.4-10.5
					c54.6,4,89.8,16.2,144.3,55.4c14.9,12.1,34.6,25.8,23.4,48.4c-23.6,18.6-37.4-8.2-67.7-27.3c-76.9-42.6-96.8-44.7-148-41.9
					C105.6,151.9,65.5,169.8,0.7,203.2L0.7,203.2z"/>
				<path style="fill:#3944DD;" d="M188.5,61.8c6.2-1,38.2-7.1,71.9-5.3C319.2,61,362,82.9,412.2,157.2l-0.4,0.4
					c-71.4-53.5-111.6-69.2-178.4-67.2c-38,1.6-121.5,13.8-205.5,57c-5.1,2.2-5,2.5-5,2.5c9.8-10.9,21.9-21.7,33.6-30.5
					C88.8,95.2,117.7,75.3,188.5,61.8z"/>
				<path style="fill:#06FEFE;" d="M378.8,234.2c-13.7,1.2-26.3-1.3-36.6-10.6c-28.5-26.1-62.5-40.9-100.1-47.9
					c-20.1-3.7-40.6-4.6-61-2.6c-3.3,0.3-13.1,1.7-13.7,1.8l0,0c35.9-13.9,73.9-18.7,110.6-9C319.5,176.7,352,201.3,378.8,234.2z"/>
				<path style="fill:#07FEFE;" d="M140.6,192.3c63.7-25.1,127.1-6.1,164.5,32.5c-10.8,1.1-20.8,0.1-29.5-6.2
					c-20.1-14.3-42.7-22.4-66.9-26.5c-13.7-2.4-27.7-3.3-41.6-2.7C159,189.8,140.6,192.3,140.6,192.3z"/>
			</g>
		</g>
	</g>
</g>
</svg>
